<svg width="20" height="21" viewBox="0 0 20 21" fill="none" xmlns="http://www.w3.org/2000/svg">
<g clip-path="url(#clip0)">
<path d="M10 17.7939C13.866 17.7939 17 14.6599 17 10.7939C17 6.92795 13.866 3.79395 10 3.79395C6.13401 3.79395 3 6.92795 3 10.7939C3 14.6599 6.13401 17.7939 10 17.7939Z" stroke="#7E859B" stroke-width="1.5" stroke-linecap="round" stroke-linejoin="round"/>
<path fill-rule="evenodd" clip-rule="evenodd" d="M9.17079 12.6652V12.2308C9.17079 12.0202 9.19273 11.825 9.2366 11.6451C9.28048 11.4652 9.34849 11.2919 9.44063 11.1251C9.53277 10.9584 9.65562 10.7917 9.80918 10.625C9.96275 10.4582 10.1536 10.2783 10.3818 10.0853C10.6187 9.87467 10.803 9.68162 10.9346 9.50611C11.0662 9.33061 11.132 9.11562 11.132 8.86114C11.132 8.59788 11.0333 8.36534 10.8359 8.16351C10.6384 7.96168 10.3686 7.86076 10.0264 7.86076C9.84209 7.86076 9.67536 7.89148 9.52618 7.9529C9.37701 8.01433 9.24538 8.09769 9.1313 8.203C9.01722 8.3083 8.92289 8.42676 8.8483 8.55839C8.77371 8.69002 8.71887 8.82604 8.68377 8.96644L7.17004 8.33463C7.24025 8.08892 7.35213 7.84322 7.5057 7.59751C7.65926 7.3518 7.85231 7.13023 8.08486 6.93279C8.3174 6.73534 8.59162 6.5752 8.90753 6.45235C9.22344 6.32949 9.57883 6.26807 9.97372 6.26807C10.3949 6.26807 10.781 6.33169 11.132 6.45893C11.4831 6.58617 11.7836 6.76167 12.0337 6.98544C12.2838 7.20921 12.479 7.47465 12.6194 7.78179C12.7598 8.08892 12.83 8.41799 12.83 8.769C12.83 9.02348 12.7993 9.25163 12.7379 9.45346C12.6765 9.65529 12.5931 9.84396 12.4878 10.0195C12.3825 10.195 12.2597 10.3595 12.1193 10.5131C11.9789 10.6666 11.8297 10.818 11.6717 10.9672C11.5225 11.1076 11.3975 11.2348 11.2966 11.3489C11.1957 11.463 11.1167 11.5749 11.0597 11.6846C11.0026 11.7942 10.9609 11.9105 10.9346 12.0334C10.9083 12.1562 10.8951 12.2966 10.8951 12.4546V12.6652H9.17079ZM10.0132 15.9823C9.69729 15.9823 9.42965 15.8704 9.21027 15.6467C8.99089 15.4229 8.8812 15.1531 8.8812 14.8372C8.8812 14.5212 8.99089 14.2536 9.21027 14.0342C9.42965 13.8148 9.69729 13.7052 10.0132 13.7052C10.3291 13.7052 10.5989 13.8148 10.8227 14.0342C11.0465 14.2536 11.1584 14.5212 11.1584 14.8372C11.1584 15.1531 11.0465 15.4229 10.8227 15.6467C10.5989 15.8704 10.3291 15.9823 10.0132 15.9823Z" fill="#7E859B"/>
</g>
<defs>
<clipPath id="clip0">
<rect width="20" height="20" fill="white" transform="translate(0 0.793945)"/>
</clipPath>
</defs>
</svg>
